PathFileType	4	(X/Y/Z)	DARI_DATA/Captury_Subj6_bilateral_squat02.trc
DataRate	CameraRate	NumFrames	NumMarkers	Units	OrigDataRate	OrigDataStartFrame	OrigNumFrames
60	60	4	47	mm	59.99879837036133	52	204
Frame#	Time		LeftUpLeg_		RightUpLeg_		LeftLeg_		RightLeg_		LeftFoot_		RightFoot_		LeftToeBase_		RightToeBase_		Knee_Lateral_r		Knee_Lateral_l		Ankle_Lateral_r		Ankle_Lateral_l		LeftArm_		LeftForeArm_		LeftHand_		LeftHandEE		RightArm_		RightForeArm_		RightHand_		RightHandEE		Spine_		Spine1_		Spine2_		Spine3_		Spine4_		Spine5_		Spine_x		Spine_y		Spine_z		RASI		LASI		RIPS		LIPS		RTHI		LTHI		RTIB		LTIB		RTOE		LTOE		RHEE		LHEE		RHipAngles		LHipAngles		RKneeAngles		LKneeAngles		RAnkleAngles		LAnkleAngles
			X1	Y1	Z1	X2	Y2	Z2	X3	Y3	Z3	X4	Y4	Z4	X5	Y5	Z5	X6	Y6	Z6	X7	Y7	Z7	X8	Y8	Z8	X9	Y9	Z9	X10	Y10	Z10	X11	Y11	Z11	X12	Y12	Z12	X13	Y13	Z13	X14	Y14	Z14	X15	Y15	Z15	X16	Y16	Z16	X17	Y17	Z17	X18	Y18	Z18	X19	Y19	Z19	X20	Y20	Z20	X21	Y21	Z21	X22	Y22	Z22	X23	Y23	Z23	X24	Y24	Z24	X25	Y25	Z25	X26	Y26	Z26	X27	Y27	Z27	X28	Y28	Z28	X29	Y29	Z29	X30	Y30	Z30	X31	Y31	Z31	X32	Y32	Z32	X33	Y33	Z33	X34	Y34	Z34	X35	Y35	Z35	X36	Y36	Z36	X37	Y37	Z37	X38	Y38	Z38	X39	Y39	Z39	X40	Y40	Z40	X41	Y41	Z41	X42	Y42	Z42	X43	Y43	Z43	X44	Y44	Z44	X45	Y45	Z45	X46	Y46	Z46	X47	Y47	Z47

52	0.85000	-78.10336	1002.13562	-2.01718	118.72282	1009.87494	3.84624	-148.77362	527.21863	11.64469	171.77231	532.74316	19.90802	-202.22314	90.46854	68.98809	214.01544	94.95129	78.64033	-228.72975	33.62324	-68.55270	237.33192	37.84254	-59.36829	226.16954	536.24103	28.17623	-202.98833	532.68591	20.04300	265.17810	98.91267	108.62212	-253.14487	95.82135	99.16327	-123.87183	1589.03564	40.27033	-198.64050	1255.67004	1.05451	-203.29990	999.46606	-94.22305	-178.33778	906.75171	-121.34241	179.52985	1573.85986	33.16882	255.36591	1242.84253	-21.02754	220.30847	993.20331	-126.81612	192.14671	898.96814	-110.04816	15.16228	1109.88611	36.59139	13.10156	1230.24268	30.11460	14.09177	1316.80725	51.54668	18.78245	1418.54895	98.38651	29.49510	1579.91614	102.20207	0.00000	0.00000	0.00000	70.25246	1112.05225	38.23251	12.79864	1164.51538	43.82837	13.82108	1102.58765	91.24709	185.06989	1101.12354	-94.00110	-145.47119	1088.12646	-103.84785	59.84789	1074.46240	66.35551	-28.29640	1070.99658	63.72972	218.56331	795.40332	26.18744	-185.78392	791.39526	19.40127	237.17946	337.88312	36.02787	-224.54715	268.11865	29.74726	251.59834	29.43974	-142.96851	-239.26273	31.44068	-153.09515	203.95203	19.23426	135.02203	-208.24536	16.11938	127.71779	9.73672	1.14589	6.96827	8.41757	7.75505	10.66547	0.04656	-0.17084	-0.12028	-0.15253	-0.77903	-0.05951	-0.16694	1.04400	-3.80123	0.26619	-1.69280	5.04667
53	0.86667	-77.77853	1002.01129	-3.39570	119.02161	1009.70837	3.33347	-148.83057	527.18469	11.37256	172.17413	532.60016	19.74478	-202.30945	90.47311	68.97914	214.33902	94.84372	78.79491	-227.92258	33.55904	-68.70238	237.64218	37.64171	-59.17729	226.54480	536.11871	28.17733	-203.06519	532.71381	19.60008	265.41400	98.82957	108.92258	-253.32967	95.81796	98.98891	-124.04578	1589.62085	39.57885	-199.49368	1256.82471	-3.02483	-203.52264	1000.94470	-99.19754	-176.97295	908.19073	-124.62054	179.83469	1574.26501	34.34153	256.14349	1243.92566	-23.22333	221.76025	995.43457	-131.89722	192.43393	901.67639	-114.46474	15.34246	1109.79114	35.47883	13.32736	1230.16516	29.14543	14.23330	1316.67749	50.82835	18.73296	1418.21960	98.13837	29.40846	1579.57373	102.88470	0.00000	0.00000	0.00000	70.42535	1111.94556	37.36227	12.96092	1164.43091	42.62969	13.75599	1102.56860	90.13804	185.82759	1100.80444	-94.34348	-144.66972	1087.87830	-105.64413	59.88581	1074.39722	65.49059	-28.24681	1070.95032	62.47709	218.86195	795.27765	26.06329	-185.67223	791.40796	18.29446	237.57520	337.76123	36.14077	-224.57103	268.07645	29.49223	251.83290	29.15911	-142.78230	-237.99397	31.42014	-153.30217	204.53505	19.16385	135.27206	-208.41483	16.10143	127.67165	9.67173	1.18033	6.89130	8.48933	7.77779	10.75954	0.04314	-0.17629	-0.12977	-0.06033	-0.85458	-0.06868	-0.16618	0.82350	-3.65556	0.21410	-1.80910	4.88938
54	0.88333	-77.39650	1002.22198	-3.96973	119.37874	1009.99286	3.37334	-148.72797	527.44751	11.13093	172.48164	532.86224	19.29423	-201.99092	90.75424	69.07684	214.04929	95.08496	78.61471	-227.24286	33.73829	-68.62927	237.10074	37.57442	-59.27157	226.82932	536.36877	27.87845	-202.97018	533.01367	19.28292	265.04300	99.06128	108.88094	-253.07339	96.08006	98.98387	-124.22729	1590.46057	38.53059	-200.67104	1258.45654	-8.27207	-203.82635	1002.78485	-105.02969	-175.77878	910.10608	-129.08142	179.98575	1574.71204	35.60268	257.23859	1245.30225	-25.89510	223.08406	998.24139	-137.85240	192.51694	904.79236	-120.89806	15.56296	1110.04541	35.16983	13.52002	1230.44043	28.96797	14.32461	1316.92542	50.82437	18.63144	1418.35242	98.43195	29.24855	1579.70728	103.75077	0.00000	0.00000	0.00000	70.63888	1112.22046	37.22510	13.13909	1164.68604	42.29994	13.80810	1102.83545	89.82557	186.45671	1101.08984	-94.11620	-143.99876	1088.03992	-106.44783	60.02510	1074.67505	65.32942	-28.09636	1071.19507	62.04099	219.15497	795.53058	26.08807	-185.43372	791.69714	17.76845	237.64401	337.96436	35.93955	-224.30945	268.30093	29.36766	251.10197	28.99913	-142.89911	-237.17715	31.60224	-153.24536	204.49452	19.53132	135.30330	-207.97090	16.37815	127.77671	9.58456	1.15607	6.86958	8.51506	7.82783	10.86655	-0.06066	-0.21663	-0.13418	-0.07424	-0.92602	-0.10734	-0.08721	0.53523	-3.48850	0.18506	-1.78477	4.76371
55	0.90000	-76.80328	1002.16718	-4.55935	119.93974	1010.12762	3.41546	-148.38699	527.45361	11.24712	172.65448	532.94745	19.13811	-201.82550	90.80585	69.37364	214.01166	95.16580	78.57257	-226.63031	33.66218	-68.36075	236.73497	37.24587	-59.19672	226.98407	536.40820	27.85437	-202.64771	533.05920	19.24760	264.92493	99.19276	108.96726	-253.01320	96.15424	99.09613	-124.59817	1591.20703	37.55181	-202.29771	1260.28015	-14.51541	-204.49394	1005.14197	-112.69740	-174.25200	912.46710	-133.94147	180.00439	1575.26538	36.83347	258.37512	1246.94763	-28.94101	223.99750	1001.79291	-144.94688	192.88809	908.26917	-129.45410	15.92876	1110.11475	34.77705	13.78973	1230.54907	28.70531	14.44922	1317.01782	50.77115	18.52789	1418.31128	98.75992	28.99454	1579.68420	104.82860	0.00000	0.00000	0.00000	70.99567	1112.34277	37.00915	13.43122	1164.76001	41.84605	14.00294	1102.95630	89.43379	187.24995	1101.19226	-93.94424	-143.15144	1087.82385	-107.33681	60.32531	1074.81494	65.11537	-27.78173	1071.25000	61.54403	219.50412	795.57672	26.22216	-184.99117	791.73151	17.29309	237.74808	338.04129	35.95404	-224.01550	268.31744	29.43635	250.52824	28.51321	-142.84250	-236.34421	31.52402	-153.00232	204.63132	19.78094	135.51437	-207.80115	16.45132	128.10124	9.50343	1.05834	6.82031	8.55386	7.90506	10.90735	-0.09537	-0.17658	-0.12462	-0.01480	-0.96254	-0.15530	0.06073	0.24521	-3.42217	0.18710	-1.72782	4.65132
